<svg width="150" height="150" viewBox="0 0 150 150" fill="none" xmlns="http://www.w3.org/2000/svg">
<rect width="150" height="150" rx="75" fill="#58B472"/>
<path d="M110.897 37.9476H94.9861V28H54.9201V37.9476H39.0096C32.3879 37.9476 27 43.4764 27 50.2709V110H122.908V50.2709C122.908 43.4764 117.52 37.9476 110.897 37.9476ZM61.4096 34.6567H88.4999V37.9476H61.4096V34.6567ZM116.42 103.344H33.4884V50.2709C33.4884 47.1458 35.9646 44.6032 39.0096 44.6032H110.897C113.943 44.6032 116.42 47.1458 116.42 50.2709V103.344Z" fill="#175416"/>
<path d="M92.0121 80.45L92.0121 67.5657L80.659 67.5657L80.659 56.5047L68.1251 56.5047L68.1251 67.5657L56.772 67.5657L56.772 80.1301L68.1251 80.1301L68.1251 91.511L80.659 91.511L80.659 80.45L92.0121 80.45Z" fill="#175416"/>
</svg>
